<?xml version="1.0" encoding="utf-8"?>
<!-- Generator: Adobe Illustrator 19.2.1, SVG Export Plug-In . SVG Version: 6.00 Build 0)  -->
<svg version="1.1" id="layer" xmlns="http://www.w3.org/2000/svg" xmlns:xlink="http://www.w3.org/1999/xlink" x="0px" y="0px"
	 viewBox="0 0 652 652" style="enable-background:new 0 0 652 652;" xml:space="preserve">
<style type="text/css">
	.st0{fill:#FF0000;}
</style>
<path class="st0" d="M94.2,245.4c-40.7,0-73.6,33.7-73.6,75.3c0,41.6,33,75.3,73.6,75.3c40.7,0,73.7-33.7,73.7-75.3
	C167.8,279.1,134.9,245.4,94.2,245.4z M94.6,363.8c9.1-10.3,18.1-24.5,15.8-36c-1.9-11.7-10.5-15.6-16.2-15.5
	C88.5,312.2,80,316,78,327.8c-2.4,11.6,6.7,25.7,15.8,36c-28.6-0.3-51.8-24.2-51.8-53.5c0-29.6,23.4-53.5,52.3-53.5
	c28.9,0,52.4,24,52.4,53.5C146.8,339.8,123.4,363.7,94.6,363.8L94.6,363.8z M395.6,365.8c-11.1,0-21.7-2.8-28.3-7.7
	c-8.4-6.1-13.1-17.5-13.1-32c0-27.4,13.1-40.6,40.2-40.6c27.1,0,40.2,13.3,40.2,41.1C434.5,352.4,421.2,365.8,395.6,365.8
	L395.6,365.8z M394.5,298.8c-14.8,0-21.1,8.1-21.1,26.6c-0.1,18.6,6.6,27,21.2,27c14.4,0,20.9-8.4,20.9-27.1
	C415.5,307.2,408.9,298.8,394.5,298.8L394.5,298.8z M486,350.3c-10.7,0-14.1-0.7-17-3.1c-2.8-2.5-3.5-4.2-3.9-11.9v-39.5
	c0-4-3.3-7.3-7.4-7.3h-9.8v42.3c0,13.2,1.3,19.1,5.7,24.3c5,6,12.4,8.7,24.1,8.7h23.2v-13.4L486,350.3L486,350.3L486,350.3z
	 M588.6,288.4h-11.7c-4.3,0.1-8.2,2.6-10,6.6l-29.2,68.7h11.8c4.4,0,8.4-2.6,10.2-6.6l4.6-10.9h29.5l4.6,11
	c1.7,3.8,5.6,6.5,10.2,6.6h11.9L588.6,288.4L588.6,288.4z M568,332.9l11-26.4l11,26.4H568L568,332.9z M519.1,288.4
	c-4.1,0.1-7.3,3.3-7.4,7.3v68.1h9.6c4.1-0.1,7.4-3.3,7.5-7.2v-68.1H519.1L519.1,288.4z M260.8,288.5c-4.3,0.1-8.3,2.6-10.1,6.6
	l-18.1,46.4l-19.3-46.3c-1.8-4-5.8-6.6-10.2-6.7h-11.8l32.6,75.3h9.4c4.3-0.1,8.1-2.5,9.9-6.4l30.5-68.9L260.8,288.5L260.8,288.5z
	 M299.8,310.2c2.9-6,8.7-8.2,19.5-8.4h22.5v-13.4h-29.2c-4.7,0-8.3,0.3-11.3,1.1l-0.1,0c-2.2,0.5-4.1,1.3-5.8,2.3
	c-4.3,2.2-6.7,4.9-6.7,4.9c-2.7,2.7-4.9,6-6.6,10c-2.6,5.4-3.8,11.5-3.8,18.9v1.2c0,7.4,1.2,13.4,3.8,18.9c1.8,4.1,4.1,7.6,7,10.4
	c0,0,1.6,1.5,2.4,2.1c2.1,1.6,4.3,2.7,6,3.4c0.7,0.3,1.5,0.6,2.3,0.8l1.2,0.3c3.1,0.8,6.9,1.2,11.7,1.2h29.2v-13.5h-22.5
	c-10.7-0.1-16.6-2.4-19.5-8.4c-1.1-2.3-1.8-5.2-2.1-8.7v-0.7h42.2v-13h-42.2v-0.6C298,315.4,298.7,312.5,299.8,310.2L299.8,310.2z"
	/>
</svg>
